<svg width="28" height="28" viewBox="0 0 48 48" fill="none" xmlns="http://www.w3.org/2000/svg">
  <rect width="48" height="48" rx="10" fill="#0B0B0B"/>
  <path d="M31.8 16.1c-2.2 0-4 1.5-5.3 1.5-1.3 0-3.4-1.5-5.6-1.5-2.9 0-6 1.8-7.6 4.9-2.7 5.1-.7 12.7 2.1 17.1 1.4 2.2 3.1 4.6 5.4 4.6 2.1 0 2.9-1.5 5.6-1.5s3.4 1.5 5.6 1.5c2.3 0 4-2.3 5.4-4.5 1-1.6 1.7-3.4 2.2-5.2l.2-.8c.3-1.2.4-2.3.4-3.4 0-6.2-3.9-12.8-9.4-12.8z" 
        fill="#fff" stroke="#F2C94C" stroke-width="2"/>
  <path d="M28.6 11.4c1.1-1.4 2-3.3 1.7-5.4-1.7.1-3.8 1.2-5 2.7-1.1 1.3-2.1 3.2-1.8 5.1 1.9.2 3.9-1 5.1-2.4z" 
        fill="#fff" stroke="#F2C94C" stroke-width="2"/>
</svg>
