<svg width="28" height="28" viewBox="0 0 48 48" fill="none" xmlns="http://www.w3.org/2000/svg">
  <rect width="48" height="48" rx="10" fill="#1A1A1A"/>
  <path d="M24 10c3.4 0 6.1 1.4 7.9 3.1l5.6-5.6C34 3.2 29.5 1 24 1 14.8 1 7.1 6.8 4 14.8l6.7 5.2C12.5 14 17.8 10 24 10z" fill="#EA4335"/>
  <path d="M46 24c0-1.7-.2-3.4-.6-5H24v9.5h12.5C35.6 33 30.5 37 24 37c-7.2 0-13.2-4.8-15.3-11.2L1.9 31C5.7 40.2 14 47 24 47 35.4 47 46 37.5 46 24z" fill="#4285F4"/>
  <path d="M8.7 25.8A14.9 14.9 0 0 1 7 21c0-1.7.3-3.4.8-4.8l-6.7-5.2A22.93 22.93 0 0 0 1 21c0 3.6.8 7 2.1 10.1l6.7-5.3z" fill="#FBBC05"/>
  <path d="M24 10c4.3 0 7.2 1.9 8.9 3.6l6.8-6.6C36 2.1 30.4 0 24 0 14.8 0 6.6 5.1 2.7 12.5l7 5.3C12.5 14 17.8 10 24 10z" fill="#34A853"/>
</svg>
